<?xml version="1.0" encoding="UTF-8"?><svg xmlns="http://www.w3.org/2000/svg" viewBox="0 0 600 1000"><g transform="translate(-500, 300)"><!--3 6--><rect x="30" y="0" height="200" width="20" fill="green"/><!--4 6--><rect x="60" y="0" height="200" width="20" fill="green"/><!--4 5--><rect x="90" y="0" height="200" width="20" fill="green"/><!--4 5--><rect x="120" y="0" height="200" width="20" fill="green"/><!--6 5--><rect x="150" y="0" height="200" width="20" fill="green"/><!--5 5--><rect x="180" y="0" height="200" width="20" fill="green"/><!--5 5--><rect x="210" y="0" height="200" width="20" fill="green"/><!--4 5--><rect x="240" y="0" height="200" width="20" fill="green"/><!--4 6--><rect x="270" y="0" height="200" width="20" fill="green"/><!--5 5--><rect x="300" y="0" height="200" width="20" fill="green"/><!--4 4--><rect x="330" y="0" height="200" width="20" fill="green"/><!--5 5--><rect x="360" y="0" height="200" width="20" fill="green"/><!--3 5--><rect x="390" y="0" height="200" width="20" fill="green"/><!--3 4--><rect x="420" y="0" height="200" width="20" fill="green"/><!--4 5--><rect x="450" y="0" height="200" width="20" fill="green"/><!--7 5--><rect x="480" y="0" height="200" width="20" fill="green"/><!--5 5--><rect x="510" y="0" height="200" width="20" fill="green"/><!--5 4--><rect x="540" y="0" height="200" width="20" fill="green"/><!--5 4--><rect x="570" y="0" height="200" width="20" fill="green"/><!--5 4--><rect x="600" y="0" height="200" width="20" fill="green"/><!--5 5--><rect x="630" y="0" height="200" width="20" fill="green"/><!--3 4--><rect x="660" y="0" height="200" width="20" fill="green"/><!--4 4--><rect x="690" y="0" height="200" width="20" fill="green"/><!--4 4--><rect x="720" y="0" height="200" width="20" fill="green"/><!--4 4--><rect x="750" y="0" height="200" width="20" fill="green"/><!--3 4--><rect x="780" y="0" height="200" width="20" fill="green"/><!--4 5--><rect x="810" y="0" height="200" width="20" fill="green"/><!--4 5--><rect x="840" y="0" height="200" width="20" fill="green"/><!--4 5--><rect x="870" y="0" height="200" width="20" fill="green"/><!--4 5--><rect x="900" y="0" height="200" width="20" fill="green"/><!--5 4--><rect x="930" y="0" height="200" width="20" fill="green"/><!--4 3--><rect x="960" y="0" height="200" width="20" fill="green"/><!--5 4--><rect x="990" y="0" height="200" width="20" fill="green"/><!--5 4--><rect x="1020" y="0" height="200" width="20" fill="green"/><!--5 4--><rect x="1050" y="0" height="200" width="20" fill="green"/><!--4 4--><rect x="1080" y="0" height="200" width="20" fill="green"/><!--3 3--><rect x="1110" y="0" height="200" width="20" fill="green"/><!--5 4--><rect x="1140" y="0" height="200" width="20" fill="green"/><!--5 5--><rect x="1170" y="0" height="200" width="20" fill="green"/><!--4 5--><rect x="1200" y="0" height="200" width="20" fill="green"/><!--5 5--><rect x="1230" y="0" height="200" width="20" fill="green"/><!--5 4--><rect x="1260" y="0" height="200" width="20" fill="green"/><!--5 4--><rect x="1290" y="0" height="200" width="20" fill="green"/><!--5 3--><rect x="1320" y="0" height="200" width="20" fill="green"/><!--4 3--><rect x="1350" y="0" height="200" width="20" fill="green"/><!--3 4--><rect x="1380" y="0" height="200" width="20" fill="green"/><!--4 3--><rect x="1410" y="0" height="200" width="20" fill="green"/><!--4 5--><rect x="1440" y="0" height="200" width="20" fill="green"/><!--4 4--><rect x="1470" y="0" height="200" width="20" fill="green"/><!--4 5--><rect x="1500" y="0" height="200" width="20" fill="green"/><!--3 5--><rect x="1530" y="0" height="200" width="20" fill="green"/><!--5 3--><rect x="1560" y="0" height="200" width="20" fill="green"/><!--4 5--><rect x="1590" y="0" height="200" width="20" fill="green"/><!--3 4--><rect x="1620" y="0" height="200" width="20" fill="green"/><!--5 4--><rect x="1650" y="0" height="200" width="20" fill="green"/><!--4 4--><rect x="1680" y="0" height="200" width="20" fill="green"/><!--5 4--><rect x="1710" y="0" height="200" width="20" fill="green"/><!--3 4--><rect x="1740" y="0" height="200" width="20" fill="green"/><!--4 4--><rect x="1770" y="0" height="200" width="20" fill="green"/><!--4 4--><rect x="1800" y="0" height="200" width="20" fill="green"/><!--4 4--><rect x="1830" y="0" height="200" width="20" fill="green"/><!--5 4--><rect x="1860" y="0" height="200" width="20" fill="green"/><!--4 5--><rect x="1890" y="0" height="200" width="20" fill="green"/><!--4 5--><rect x="1920" y="0" height="200" width="20" fill="green"/><!--5 3--><rect x="1950" y="0" height="200" width="20" fill="green"/><!--5 6--><rect x="1980" y="0" height="200" width="20" fill="green"/><!--4 5--><rect x="2010" y="0" height="200" width="20" fill="green"/><!--5 6--><rect x="2040" y="0" height="200" width="20" fill="green"/><!--5 5--><rect x="2070" y="0" height="200" width="20" fill="green"/><!--5 3--><rect x="2100" y="0" height="200" width="20" fill="green"/><!--3 4--><rect x="2130" y="0" height="200" width="20" fill="green"/><!--6 5--><rect x="2160" y="0" height="200" width="20" fill="green"/><!--5 6--><rect x="2190" y="0" height="200" width="20" fill="green"/><!--3 5--><rect x="2220" y="0" height="200" width="20" fill="green"/><!--6 6--><rect x="2250" y="0" height="200" width="20" fill="green"/><!--6 4--><rect x="2280" y="0" height="200" width="20" fill="green"/><!--4 4--><rect x="2310" y="0" height="200" width="20" fill="green"/><!--4 6--><rect x="2340" y="0" height="200" width="20" fill="green"/><!--5 3--><rect x="2370" y="0" height="200" width="20" fill="green"/><!--4 4--><rect x="2400" y="0" height="200" width="20" fill="green"/><!--3 4--><rect x="2430" y="0" height="200" width="20" fill="green"/><!--3 4--><rect x="2460" y="0" height="200" width="20" fill="green"/><!--6 5--><rect x="2490" y="0" height="200" width="20" fill="green"/><!--4 5--><rect x="2520" y="0" height="200" width="20" fill="green"/><!--4 5--><rect x="2550" y="0" height="200" width="20" fill="green"/><!--5 3--><rect x="2580" y="0" height="200" width="20" fill="green"/><!--4 4--><rect x="2610" y="0" height="200" width="20" fill="green"/><!--5 3--><rect x="2640" y="0" height="200" width="20" fill="green"/><!--4 3--><rect x="2670" y="0" height="200" width="20" fill="green"/><!--4 4--><rect x="2700" y="0" height="200" width="20" fill="green"/><!--4 5--><rect x="2730" y="0" height="200" width="20" fill="green"/><!--4 6--><rect x="2760" y="0" height="200" width="20" fill="green"/><!--5 5--><rect x="2790" y="0" height="200" width="20" fill="green"/><!--5 5--><rect x="2820" y="0" height="200" width="20" fill="green"/><!--4 5--><rect x="2850" y="0" height="200" width="20" fill="green"/><!--4 4--><rect x="2880" y="0" height="200" width="20" fill="green"/><!--4 5--><rect x="2910" y="0" height="200" width="20" fill="green"/><!--4 6--><rect x="2940" y="0" height="200" width="20" fill="green"/><!--3 5--><rect x="2970" y="0" height="200" width="20" fill="green"/><!--4 6--><rect x="3000" y="0" height="200" width="20" fill="green"/><!--5 3--><rect x="3030" y="0" height="200" width="20" fill="green"/><!--5 4--><rect x="3060" y="0" height="200" width="20" fill="green"/><!--5 4--><rect x="3090" y="0" height="200" width="20" fill="green"/><!--5 4--><rect x="3120" y="0" height="200" width="20" fill="green"/><!--4 4--><rect x="3150" y="0" height="200" width="20" fill="green"/><!--3 3--><rect x="3180" y="0" height="200" width="20" fill="green"/><!--4 5--><rect x="3210" y="0" height="200" width="20" fill="green"/><!--4 4--><rect x="3240" y="0" height="200" width="20" fill="green"/><!--5 4--><rect x="3270" y="0" height="200" width="20" fill="green"/><!--5 4--><rect x="3300" y="0" height="200" width="20" fill="green"/><!--5 4--><rect x="3330" y="0" height="200" width="20" fill="green"/><!--4 4--><rect x="3360" y="0" height="200" width="20" fill="green"/><!--4 4--><rect x="3390" y="0" height="200" width="20" fill="green"/><!--6 3--><rect x="3420" y="0" height="200" width="20" fill="green"/><!--5 3--><rect x="3450" y="0" height="200" width="20" fill="green"/><!--3 3--><rect x="3480" y="0" height="200" width="20" fill="green"/><!--4 4--><rect x="3510" y="0" height="200" width="20" fill="green"/><!--5 4--><rect x="3540" y="0" height="200" width="20" fill="green"/><!--4 3--><rect x="3570" y="0" height="200" width="20" fill="green"/><!--4 4--><rect x="3600" y="0" height="200" width="20" fill="green"/><!--3 5--><rect x="3630" y="0" height="200" width="20" fill="green"/><!--4 3--><rect x="3660" y="0" height="200" width="20" fill="green"/><!--4 3--><rect x="3690" y="0" height="200" width="20" fill="green"/><!--4 2--><rect x="3720" y="0" height="200" width="20" fill="green"/><!--4 3--><rect x="3750" y="0" height="200" width="20" fill="green"/><!--5--><rect x="3780" y="0" height="200" width="20" fill="green"/><!--4--><rect x="3810" y="0" height="200" width="20" fill="green"/><!--4 3--><rect x="3840" y="0" height="200" width="20" fill="green"/><!--4 5--><rect x="3870" y="0" height="200" width="20" fill="green"/><!--4 5--><rect x="3900" y="0" height="200" width="20" fill="green"/><!--4 5--><rect x="3930" y="0" height="200" width="20" fill="green"/><!--5 5--><rect x="3960" y="0" height="200" width="20" fill="green"/><!--3 5--><rect x="3990" y="0" height="200" width="20" fill="green"/><!--4 4--><rect x="4020" y="0" height="200" width="20" fill="green"/><!--4 4--><rect x="4050" y="0" height="200" width="20" fill="green"/><!--4 4--><rect x="4080" y="0" height="200" width="20" fill="green"/><!--5 4--><rect x="4110" y="0" height="200" width="20" fill="green"/><!--4 6--><rect x="4140" y="0" height="200" width="20" fill="green"/><!--5 4--><rect x="4170" y="0" height="200" width="20" fill="green"/><!--5 4--><rect x="4200" y="0" height="200" width="20" fill="green"/><!--5 6--><rect x="4230" y="0" height="200" width="20" fill="green"/><!--4 4--><rect x="4260" y="0" height="200" width="20" fill="green"/><!--4 5--><rect x="4290" y="0" height="200" width="20" fill="green"/><!--5 4--><rect x="4320" y="0" height="200" width="20" fill="green"/><!--4 4--><rect x="4350" y="0" height="200" width="20" fill="green"/><!--4 3--><rect x="4380" y="0" height="200" width="20" fill="green"/><!--5 3--><rect x="4410" y="0" height="200" width="20" fill="green"/><!--4 4--><rect x="4440" y="0" height="200" width="20" fill="green"/><!--5 4--><rect x="4470" y="0" height="200" width="20" fill="green"/><!--5 6--><rect x="4500" y="0" height="200" width="20" fill="green"/><!--4 5--><rect x="4530" y="0" height="200" width="20" fill="green"/><!--5 5--><rect x="4560" y="0" height="200" width="20" fill="green"/><!--4 5--><rect x="4590" y="0" height="200" width="20" fill="green"/><!--4 4--><rect x="4620" y="0" height="200" width="20" fill="green"/><!--5 3--><rect x="4650" y="0" height="200" width="20" fill="green"/><!--6 5--><rect x="4680" y="0" height="200" width="20" fill="green"/><!--4 4--><rect x="4710" y="0" height="200" width="20" fill="green"/><!--3 4--><rect x="4740" y="0" height="200" width="20" fill="green"/><!--4 4--><rect x="4770" y="0" height="200" width="20" fill="green"/></g></svg>