<?xml version="1.0" encoding="UTF-8"?><svg xmlns="http://www.w3.org/2000/svg" viewBox="0 0 600 1000"><g transform="translate(-650, 300)"><text y="80" font-size="40">Word Count Per Section</text><g transform="translate(0, 480)"><line x1="0" y1="-215.094339622641509425" x2="1650" y2="-215.094339622641509425" style="stroke: maroon; stroke-width:1px"/><text x="1660" y="-211.094339622641509425" font-size="16">Avg. Word Count: 8.6</text><!--9--><rect x="10" y="-225" height="10" width="10" fill="green"/><!--10--><rect x="20" y="-250" height="10" width="10" fill="green"/><!--9--><rect x="30" y="-225" height="10" width="10" fill="green"/><!--9--><rect x="40" y="-225" height="10" width="10" fill="green"/><!--11--><rect x="50" y="-275" height="10" width="10" fill="green"/><!--10--><rect x="60" y="-250" height="10" width="10" fill="green"/><!--10--><rect x="70" y="-250" height="10" width="10" fill="green"/><!--9--><rect x="80" y="-225" height="10" width="10" fill="green"/><!--10--><rect x="90" y="-250" height="10" width="10" fill="green"/><!--10--><rect x="100" y="-250" height="10" width="10" fill="green"/><!--8--><rect x="110" y="-200" height="10" width="10" fill="green"/><!--10--><rect x="120" y="-250" height="10" width="10" fill="green"/><!--8--><rect x="130" y="-200" height="10" width="10" fill="green"/><!--7--><rect x="140" y="-175" height="10" width="10" fill="green"/><!--9--><rect x="150" y="-225" height="10" width="10" fill="green"/><!--12--><rect x="160" y="-300" height="10" width="10" fill="green"/><!--10--><rect x="170" y="-250" height="10" width="10" fill="green"/><!--9--><rect x="180" y="-225" height="10" width="10" fill="green"/><!--9--><rect x="190" y="-225" height="10" width="10" fill="green"/><!--9--><rect x="200" y="-225" height="10" width="10" fill="green"/><!--10--><rect x="210" y="-250" height="10" width="10" fill="green"/><!--7--><rect x="220" y="-175" height="10" width="10" fill="green"/><!--8--><rect x="230" y="-200" height="10" width="10" fill="green"/><!--8--><rect x="240" y="-200" height="10" width="10" fill="green"/><!--8--><rect x="250" y="-200" height="10" width="10" fill="green"/><!--7--><rect x="260" y="-175" height="10" width="10" fill="green"/><!--9--><rect x="270" y="-225" height="10" width="10" fill="green"/><!--9--><rect x="280" y="-225" height="10" width="10" fill="green"/><!--9--><rect x="290" y="-225" height="10" width="10" fill="green"/><!--9--><rect x="300" y="-225" height="10" width="10" fill="green"/><!--9--><rect x="310" y="-225" height="10" width="10" fill="green"/><!--7--><rect x="320" y="-175" height="10" width="10" fill="green"/><!--9--><rect x="330" y="-225" height="10" width="10" fill="green"/><!--9--><rect x="340" y="-225" height="10" width="10" fill="green"/><!--9--><rect x="350" y="-225" height="10" width="10" fill="green"/><!--8--><rect x="360" y="-200" height="10" width="10" fill="green"/><!--6--><rect x="370" y="-150" height="10" width="10" fill="green"/><!--9--><rect x="380" y="-225" height="10" width="10" fill="green"/><!--10--><rect x="390" y="-250" height="10" width="10" fill="green"/><!--9--><rect x="400" y="-225" height="10" width="10" fill="green"/><!--10--><rect x="410" y="-250" height="10" width="10" fill="green"/><!--9--><rect x="420" y="-225" height="10" width="10" fill="green"/><!--9--><rect x="430" y="-225" height="10" width="10" fill="green"/><!--8--><rect x="440" y="-200" height="10" width="10" fill="green"/><!--7--><rect x="450" y="-175" height="10" width="10" fill="green"/><!--7--><rect x="460" y="-175" height="10" width="10" fill="green"/><!--7--><rect x="470" y="-175" height="10" width="10" fill="green"/><!--9--><rect x="480" y="-225" height="10" width="10" fill="green"/><!--8--><rect x="490" y="-200" height="10" width="10" fill="green"/><!--9--><rect x="500" y="-225" height="10" width="10" fill="green"/><!--8--><rect x="510" y="-200" height="10" width="10" fill="green"/><!--8--><rect x="520" y="-200" height="10" width="10" fill="green"/><!--9--><rect x="530" y="-225" height="10" width="10" fill="green"/><!--7--><rect x="540" y="-175" height="10" width="10" fill="green"/><!--9--><rect x="550" y="-225" height="10" width="10" fill="green"/><!--8--><rect x="560" y="-200" height="10" width="10" fill="green"/><!--9--><rect x="570" y="-225" height="10" width="10" fill="green"/><!--7--><rect x="580" y="-175" height="10" width="10" fill="green"/><!--8--><rect x="590" y="-200" height="10" width="10" fill="green"/><!--8--><rect x="600" y="-200" height="10" width="10" fill="green"/><!--8--><rect x="610" y="-200" height="10" width="10" fill="green"/><!--9--><rect x="620" y="-225" height="10" width="10" fill="green"/><!--9--><rect x="630" y="-225" height="10" width="10" fill="green"/><!--9--><rect x="640" y="-225" height="10" width="10" fill="green"/><!--8--><rect x="650" y="-200" height="10" width="10" fill="green"/><!--11--><rect x="660" y="-275" height="10" width="10" fill="green"/><!--9--><rect x="670" y="-225" height="10" width="10" fill="green"/><!--11--><rect x="680" y="-275" height="10" width="10" fill="green"/><!--10--><rect x="690" y="-250" height="10" width="10" fill="green"/><!--8--><rect x="700" y="-200" height="10" width="10" fill="green"/><!--7--><rect x="710" y="-175" height="10" width="10" fill="green"/><!--11--><rect x="720" y="-275" height="10" width="10" fill="green"/><!--11--><rect x="730" y="-275" height="10" width="10" fill="green"/><!--8--><rect x="740" y="-200" height="10" width="10" fill="green"/><!--12--><rect x="750" y="-300" height="10" width="10" fill="green"/><!--10--><rect x="760" y="-250" height="10" width="10" fill="green"/><!--8--><rect x="770" y="-200" height="10" width="10" fill="green"/><!--10--><rect x="780" y="-250" height="10" width="10" fill="green"/><!--8--><rect x="790" y="-200" height="10" width="10" fill="green"/><!--8--><rect x="800" y="-200" height="10" width="10" fill="green"/><!--7--><rect x="810" y="-175" height="10" width="10" fill="green"/><!--7--><rect x="820" y="-175" height="10" width="10" fill="green"/><!--11--><rect x="830" y="-275" height="10" width="10" fill="green"/><!--9--><rect x="840" y="-225" height="10" width="10" fill="green"/><!--9--><rect x="850" y="-225" height="10" width="10" fill="green"/><!--8--><rect x="860" y="-200" height="10" width="10" fill="green"/><!--8--><rect x="870" y="-200" height="10" width="10" fill="green"/><!--8--><rect x="880" y="-200" height="10" width="10" fill="green"/><!--7--><rect x="890" y="-175" height="10" width="10" fill="green"/><!--8--><rect x="900" y="-200" height="10" width="10" fill="green"/><!--9--><rect x="910" y="-225" height="10" width="10" fill="green"/><!--10--><rect x="920" y="-250" height="10" width="10" fill="green"/><!--10--><rect x="930" y="-250" height="10" width="10" fill="green"/><!--10--><rect x="940" y="-250" height="10" width="10" fill="green"/><!--9--><rect x="950" y="-225" height="10" width="10" fill="green"/><!--8--><rect x="960" y="-200" height="10" width="10" fill="green"/><!--9--><rect x="970" y="-225" height="10" width="10" fill="green"/><!--10--><rect x="980" y="-250" height="10" width="10" fill="green"/><!--8--><rect x="990" y="-200" height="10" width="10" fill="green"/><!--10--><rect x="1000" y="-250" height="10" width="10" fill="green"/><!--8--><rect x="1010" y="-200" height="10" width="10" fill="green"/><!--9--><rect x="1020" y="-225" height="10" width="10" fill="green"/><!--9--><rect x="1030" y="-225" height="10" width="10" fill="green"/><!--9--><rect x="1040" y="-225" height="10" width="10" fill="green"/><!--8--><rect x="1050" y="-200" height="10" width="10" fill="green"/><!--6--><rect x="1060" y="-150" height="10" width="10" fill="green"/><!--9--><rect x="1070" y="-225" height="10" width="10" fill="green"/><!--8--><rect x="1080" y="-200" height="10" width="10" fill="green"/><!--9--><rect x="1090" y="-225" height="10" width="10" fill="green"/><!--9--><rect x="1100" y="-225" height="10" width="10" fill="green"/><!--9--><rect x="1110" y="-225" height="10" width="10" fill="green"/><!--8--><rect x="1120" y="-200" height="10" width="10" fill="green"/><!--8--><rect x="1130" y="-200" height="10" width="10" fill="green"/><!--9--><rect x="1140" y="-225" height="10" width="10" fill="green"/><!--8--><rect x="1150" y="-200" height="10" width="10" fill="green"/><!--6--><rect x="1160" y="-150" height="10" width="10" fill="green"/><!--8--><rect x="1170" y="-200" height="10" width="10" fill="green"/><!--9--><rect x="1180" y="-225" height="10" width="10" fill="green"/><!--7--><rect x="1190" y="-175" height="10" width="10" fill="green"/><!--8--><rect x="1200" y="-200" height="10" width="10" fill="green"/><!--8--><rect x="1210" y="-200" height="10" width="10" fill="green"/><!--7--><rect x="1220" y="-175" height="10" width="10" fill="green"/><!--7--><rect x="1230" y="-175" height="10" width="10" fill="green"/><!--6--><rect x="1240" y="-150" height="10" width="10" fill="green"/><!--7--><rect x="1250" y="-175" height="10" width="10" fill="green"/><!--5--><rect x="1260" y="-125" height="10" width="10" fill="green"/><!--4--><rect x="1270" y="-100" height="10" width="10" fill="green"/><!--7--><rect x="1280" y="-175" height="10" width="10" fill="green"/><!--9--><rect x="1290" y="-225" height="10" width="10" fill="green"/><!--9--><rect x="1300" y="-225" height="10" width="10" fill="green"/><!--9--><rect x="1310" y="-225" height="10" width="10" fill="green"/><!--10--><rect x="1320" y="-250" height="10" width="10" fill="green"/><!--8--><rect x="1330" y="-200" height="10" width="10" fill="green"/><!--8--><rect x="1340" y="-200" height="10" width="10" fill="green"/><!--8--><rect x="1350" y="-200" height="10" width="10" fill="green"/><!--8--><rect x="1360" y="-200" height="10" width="10" fill="green"/><!--9--><rect x="1370" y="-225" height="10" width="10" fill="green"/><!--10--><rect x="1380" y="-250" height="10" width="10" fill="green"/><!--9--><rect x="1390" y="-225" height="10" width="10" fill="green"/><!--9--><rect x="1400" y="-225" height="10" width="10" fill="green"/><!--11--><rect x="1410" y="-275" height="10" width="10" fill="green"/><!--8--><rect x="1420" y="-200" height="10" width="10" fill="green"/><!--9--><rect x="1430" y="-225" height="10" width="10" fill="green"/><!--9--><rect x="1440" y="-225" height="10" width="10" fill="green"/><!--8--><rect x="1450" y="-200" height="10" width="10" fill="green"/><!--7--><rect x="1460" y="-175" height="10" width="10" fill="green"/><!--8--><rect x="1470" y="-200" height="10" width="10" fill="green"/><!--8--><rect x="1480" y="-200" height="10" width="10" fill="green"/><!--9--><rect x="1490" y="-225" height="10" width="10" fill="green"/><!--11--><rect x="1500" y="-275" height="10" width="10" fill="green"/><!--9--><rect x="1510" y="-225" height="10" width="10" fill="green"/><!--10--><rect x="1520" y="-250" height="10" width="10" fill="green"/><!--9--><rect x="1530" y="-225" height="10" width="10" fill="green"/><!--8--><rect x="1540" y="-200" height="10" width="10" fill="green"/><!--8--><rect x="1550" y="-200" height="10" width="10" fill="green"/><!--11--><rect x="1560" y="-275" height="10" width="10" fill="green"/><!--8--><rect x="1570" y="-200" height="10" width="10" fill="green"/><!--7--><rect x="1580" y="-175" height="10" width="10" fill="green"/><!--8--><rect x="1590" y="-200" height="10" width="10" fill="green"/></g></g></svg>